<svg id="visual" viewBox="0 0 1650 900" width="1650" height="900" xmlns="http://www.w3.org/2000/svg" xmlns:xlink="http://www.w3.org/1999/xlink" version="1.1"><rect x="0" y="0" width="1650" height="900" fill="#161925"></rect><path d="M1098 900L1183 771L1065 643L1054 514L1024 386L1138 257L1015 129L1142 0L1650 0L1650 129L1650 257L1650 386L1650 514L1650 643L1650 771L1650 900Z" fill="#5a636f"></path><path d="M1260 900L1179 771L1284 643L1277 514L1155 386L1201 257L1174 129L1185 0L1650 0L1650 129L1650 257L1650 386L1650 514L1650 643L1650 771L1650 900Z" fill="#49515e"></path><path d="M1221 900L1337 771L1349 643L1211 514L1310 386L1207 257L1369 129L1244 0L1650 0L1650 129L1650 257L1650 386L1650 514L1650 643L1650 771L1650 900Z" fill="#39404e"></path><path d="M1473 900L1333 771L1402 643L1496 514L1368 386L1409 257L1331 129L1351 0L1650 0L1650 129L1650 257L1650 386L1650 514L1650 643L1650 771L1650 900Z" fill="#2a2f3e"></path><path d="M1573 900L1517 771L1514 643L1556 514L1474 386L1550 257L1563 129L1541 0L1650 0L1650 129L1650 257L1650 386L1650 514L1650 643L1650 771L1650 900Z" fill="#1c1f2e"></path></svg>