<svg id="visual" viewBox="0 0 900 250" width="900" height="250" xmlns="http://www.w3.org/2000/svg" xmlns:xlink="http://www.w3.org/1999/xlink" version="1.1"><g stroke-width="1" stroke-linejoin="bevel"><path d="M499 136.7L592 154.7L517 86.3Z" fill="#2e3948" stroke="#2e3948"></path><path d="M592 154.7L570 75.3L517 86.3Z" fill="#434d5b" stroke="#434d5b"></path><path d="M499 136.7L528 250L592 154.7Z" fill="#4f5865" stroke="#4f5865"></path><path d="M592 154.7L667 78.3L570 75.3Z" fill="#394351" stroke="#394351"></path><path d="M696 140.7L667 78.3L592 154.7Z" fill="#5a636f" stroke="#5a636f"></path><path d="M667 78.3L598 0L570 75.3Z" fill="#3e4856" stroke="#3e4856"></path><path d="M570 75.3L483 0L517 86.3Z" fill="#283444" stroke="#283444"></path><path d="M528 250L615 250L592 154.7Z" fill="#5a636f" stroke="#5a636f"></path><path d="M598 0L483 0L570 75.3Z" fill="#4f5865" stroke="#4f5865"></path><path d="M384 46.3L406 166.7L499 136.7Z" fill="#434d5b" stroke="#434d5b"></path><path d="M673 250L696 140.7L592 154.7Z" fill="#333e4d" stroke="#333e4d"></path><path d="M384 46.3L499 136.7L517 86.3Z" fill="#333e4d" stroke="#333e4d"></path><path d="M499 136.7L406 166.7L528 250Z" fill="#434d5b" stroke="#434d5b"></path><path d="M615 250L673 250L592 154.7Z" fill="#2e3948" stroke="#2e3948"></path><path d="M483 0L384 46.3L517 86.3Z" fill="#495360" stroke="#495360"></path><path d="M483 0L401 0L384 46.3Z" fill="#5a636f" stroke="#5a636f"></path><path d="M667 78.3L703 0L598 0Z" fill="#5a636f" stroke="#5a636f"></path><path d="M804 89.3L703 0L667 78.3Z" fill="#394351" stroke="#394351"></path><path d="M284 250L376 250L406 166.7Z" fill="#434d5b" stroke="#434d5b"></path><path d="M406 166.7L376 250L528 250Z" fill="#333e4d" stroke="#333e4d"></path><path d="M673 250L761 162.7L696 140.7Z" fill="#434d5b" stroke="#434d5b"></path><path d="M696 140.7L804 89.3L667 78.3Z" fill="#283444" stroke="#283444"></path><path d="M331 0L311 66.3L384 46.3Z" fill="#5a636f" stroke="#5a636f"></path><path d="M384 46.3L311 66.3L406 166.7Z" fill="#434d5b" stroke="#434d5b"></path><path d="M401 0L331 0L384 46.3Z" fill="#232f3f" stroke="#232f3f"></path><path d="M761 162.7L804 89.3L696 140.7Z" fill="#545d6a" stroke="#545d6a"></path><path d="M673 250L789 250L761 162.7Z" fill="#3e4856" stroke="#3e4856"></path><path d="M761 162.7L900 165.7L804 89.3Z" fill="#2e3948" stroke="#2e3948"></path><path d="M311 66.3L263 136.7L406 166.7Z" fill="#495360" stroke="#495360"></path><path d="M225 90.3L263 136.7L311 66.3Z" fill="#2e3948" stroke="#2e3948"></path><path d="M263 136.7L284 250L406 166.7Z" fill="#495360" stroke="#495360"></path><path d="M804 89.3L815 0L703 0Z" fill="#2e3948" stroke="#2e3948"></path><path d="M900 75.3L815 0L804 89.3Z" fill="#2e3948" stroke="#2e3948"></path><path d="M200 0L225 90.3L311 66.3Z" fill="#232f3f" stroke="#232f3f"></path><path d="M263 136.7L229 250L284 250Z" fill="#2e3948" stroke="#2e3948"></path><path d="M178 189.7L229 250L263 136.7Z" fill="#4f5865" stroke="#4f5865"></path><path d="M789 250L900 165.7L761 162.7Z" fill="#5a636f" stroke="#5a636f"></path><path d="M900 165.7L900 75.3L804 89.3Z" fill="#232f3f" stroke="#232f3f"></path><path d="M331 0L200 0L311 66.3Z" fill="#5a636f" stroke="#5a636f"></path><path d="M225 90.3L178 189.7L263 136.7Z" fill="#333e4d" stroke="#333e4d"></path><path d="M789 250L900 250L900 165.7Z" fill="#3e4856" stroke="#3e4856"></path><path d="M900 75.3L900 0L815 0Z" fill="#434d5b" stroke="#434d5b"></path><path d="M130 55.3L178 189.7L225 90.3Z" fill="#333e4d" stroke="#333e4d"></path><path d="M200 0L130 55.3L225 90.3Z" fill="#545d6a" stroke="#545d6a"></path><path d="M200 0L117 0L130 55.3Z" fill="#283444" stroke="#283444"></path><path d="M94 197.7L111 250L178 189.7Z" fill="#434d5b" stroke="#434d5b"></path><path d="M178 189.7L111 250L229 250Z" fill="#394351" stroke="#394351"></path><path d="M94 197.7L178 189.7L130 55.3Z" fill="#3e4856" stroke="#3e4856"></path><path d="M0 93.3L94 197.7L130 55.3Z" fill="#5a636f" stroke="#5a636f"></path><path d="M0 0L0 93.3L130 55.3Z" fill="#2e3948" stroke="#2e3948"></path><path d="M94 197.7L0 250L111 250Z" fill="#5a636f" stroke="#5a636f"></path><path d="M0 93.3L0 177.7L94 197.7Z" fill="#3e4856" stroke="#3e4856"></path><path d="M0 177.7L0 250L94 197.7Z" fill="#495360" stroke="#495360"></path><path d="M117 0L0 0L130 55.3Z" fill="#434d5b" stroke="#434d5b"></path></g></svg>